HIERARCHY
ROOT Hips
{
	OFFSET -33.395248 37.477898 -25.104588
	CHANNELS 6 Xposition Yposition Zposition Xrotation Yrotation Zrotation
	JOINT Chest
	{
		OFFSET -11.275318 7.361809 -2.196642
		CHANNELS 3 Xrotation Yrotation Zrotation
		JOINT Chest2
		{
			OFFSET -15.714169 14.410767 2.112194
			CHANNELS 3 Xrotation Yrotation Zrotation
			JOINT Chest3
			{
				OFFSET -7.712852 12.738396 1.032063
				CHANNELS 3 Xrotation Yrotation Zrotation
				JOINT Neck
				{
					OFFSET -7.992790 15.318443 -0.276867
					CHANNELS 3 Xrotation Yrotation Zrotation
					JOINT Head
					{
						OFFSET 0.597328 10.429184 0.838499
						CHANNELS 3 Xrotation Yrotation Zrotation
						End Site
						{
							OFFSET 0.554565 10.436104 0.779640
						}
					}
				}
				JOINT LeftCollar
				{
					OFFSET -1.832649 14.024147 1.330070
					CHANNELS 3 Xrotation Yrotation Zrotation
					JOINT LeftUpArm
					{
						OFFSET 14.204346 -0.775879 -10.302134
						CHANNELS 3 Xrotation Yrotation Zrotation
						JOINT LeftLowArm
						{
							OFFSET 32.825256 -7.881653 0.331417
							CHANNELS 3 Xrotation Yrotation Zrotation
							JOINT LeftHand
							{
								OFFSET 19.095318 21.000702 9.761461
								CHANNELS 3 Xrotation Yrotation Zrotation
								End Site
								{
									OFFSET 4.173402 4.589821 2.133425
								}
							}
						}
					}
				}
				JOINT RightCollar
				{
					OFFSET -8.993484 10.331978 3.765123
					CHANNELS 3 Xrotation Yrotation Zrotation
					JOINT RightUpArm
					{
						OFFSET -15.211777 -7.663933 -4.285114
						CHANNELS 3 Xrotation Yrotation Zrotation
						JOINT RightLowArm
						{
							OFFSET -7.872238 -30.740211 -11.523998
							CHANNELS 3 Xrotation Yrotation Zrotation
							JOINT RightHand
							{
								OFFSET -5.637619 -25.932941 14.023375
								CHANNELS 3 Xrotation Yrotation Zrotation
								End Site
								{
									OFFSET -1.232155 -5.667905 3.064943
								}
							}
						}
					}
				}
			}
		}
	}
	JOINT LeftUpLeg
	{
		OFFSET 5.543907 8.330421 -0.536974
		CHANNELS 3 Xrotation Yrotation Zrotation
		JOINT LeftLowLeg
		{
			OFFSET 31.953295 -9.790798 33.572552
			CHANNELS 3 Xrotation Yrotation Zrotation
			JOINT LeftFoot
			{
				OFFSET 43.304848 3.746113 -10.546312
				CHANNELS 3 Xrotation Yrotation Zrotation
				JOINT LeftToe
				{
					OFFSET 22.193893 7.029285 4.192797
					CHANNELS 3 Xrotation Yrotation Zrotation
					End Site
					{
						OFFSET 12.653000 12.064384 15.934588
					}
				}
			}
		}
	}
	JOINT RightUpLeg
	{
		OFFSET -5.543747 -8.330530 0.537006
		CHANNELS 3 Xrotation Yrotation Zrotation
		JOINT RightLowLeg
		{
			OFFSET 34.047760 -13.152888 30.195423
			CHANNELS 3 Xrotation Yrotation Zrotation
			JOINT RightFoot
			{
				OFFSET 43.162086 -3.322223 -11.250641
				CHANNELS 3 Xrotation Yrotation Zrotation
				JOINT RightToe
				{
					OFFSET 6.882072 11.983740 19.198538
					CHANNELS 3 Xrotation Yrotation Zrotation
					End Site
					{
						OFFSET -8.673969 8.640940 20.239876
					}
				}
			}
		}
	}
}
MOTION
Frames: 8
Frame Time: 0.033333
-0.100586 106.019554 -1.111719 12.912582 -6.334059 -57.585858 -9.259318 -13.947821 11.826074 4.753712 -9.959655 16.929309 8.950907 4.987853 -1.564563 11.494623 -22.539356 33.052689 -0.000000 -0.000002 0.000000 -0.810330 7.125950 3.053212 -2.093388 -5.254736 -45.297097 19.493346 -4.885192 -51.924454 -0.000001 0.000003 -0.000001 5.758530 10.203936 25.702842 -31.528307 27.035357 16.822846 23.040771 2.386350 -1.078990 -0.000002 -0.000005 -0.000000 20.049127 27.639730 -10.244994 -16.842944 -36.052921 -35.805720 34.511191 -22.805877 12.160056 -0.000000 0.000003 0.000000 22.863304 20.884060 -16.385784 -2.604620 -42.244785 -16.265209 10.058049 22.681930 -18.527382 0.000003 0.000003 -0.000000 
-0.093498 106.024834 -1.104248 12.355148 -6.392011 -57.666618 -8.256329 -12.461844 11.927246 2.904767 -12.121410 17.471141 10.281659 5.757777 -2.248665 11.855331 -22.568933 32.879540 0.000000 -0.000002 0.000000 -1.116352 7.095690 3.048722 -1.992379 -4.526785 -45.137438 19.275482 -4.984520 -52.669464 -0.000001 0.000002 -0.000001 5.652946 9.713831 25.804482 -31.010613 26.360553 16.441259 22.821935 2.354755 -0.369853 -0.000002 0.000001 -0.000002 20.427492 28.158913 -10.530805 -16.986103 -36.096600 -35.781104 34.888726 -22.556491 12.370258 0.000001 -0.000000 0.000003 23.343785 21.323992 -16.568671 -2.581295 -42.647688 -16.212704 10.340541 22.618506 -18.468241 -0.000001 0.000003 -0.000003 
-0.081436 106.032700 -1.103489 11.867220 -6.379098 -57.759570 -8.088755 -12.244420 11.966733 3.314223 -11.700491 17.402846 9.597179 5.995114 -2.052662 12.434143 -22.560979 33.109188 -0.000000 0.000005 0.000001 -0.628565 6.613437 3.107650 -1.921419 -4.698529 -45.220668 19.493047 -5.140477 -52.325321 -0.000000 0.000004 -0.000004 5.998476 8.981929 25.978578 -31.163476 26.682778 16.477799 23.023909 2.568426 -0.332476 -0.000000 -0.000001 -0.000001 20.500920 28.380976 -10.533204 -16.980376 -36.044578 -35.927256 34.543193 -22.671898 12.177604 0.000004 0.000002 -0.000000 23.580489 21.622154 -16.633708 -2.559003 -42.755844 -16.186099 10.166604 22.611186 -18.531785 0.000001 0.000000 0.000002 
-0.058205 106.031448 -1.094431 12.060677 -6.403711 -57.882083 -7.823291 -11.871816 12.001508 1.936044 -13.246265 17.706596 11.003446 6.670864 -2.581088 12.412248 -22.738108 33.334909 -0.000000 0.000005 -0.000000 -0.539620 6.500447 3.212783 -2.041535 -4.935449 -45.223581 19.545404 -5.413671 -52.457738 -0.000006 -0.000000 -0.000005 6.110659 8.632641 26.021298 -31.225661 26.772868 16.470861 22.850956 2.805388 -0.355927 0.000002 -0.000002 0.000000 20.417626 28.323295 -10.531534 -16.972499 -36.027656 -35.760541 34.511928 -22.637448 12.191276 0.000003 0.000004 -0.000003 23.321105 21.412035 -16.432491 -2.468857 -42.592855 -16.212943 10.093057 22.359654 -18.350329 0.000004 0.000004 0.000002 
-0.023689 106.033539 -1.094194 12.392531 -6.643338 -57.966675 -7.813642 -11.830005 11.986932 1.119953 -14.158761 17.882783 11.849945 6.977326 -2.881336 12.382871 -22.875181 33.467316 -0.000000 0.000003 -0.000000 -0.477025 6.444425 3.247555 -2.008345 -4.860286 -45.272779 19.565132 -5.433307 -52.432856 -0.000000 0.000003 -0.000001 6.075745 8.737259 25.870839 -31.734261 26.927278 16.857440 23.068351 2.766404 -0.541878 0.000002 -0.000002 0.000000 20.364988 28.396641 -10.456638 -17.413364 -36.513146 -35.981676 34.522471 -22.684414 12.180022 0.000003 0.000006 -0.000001 23.126197 21.246623 -16.285167 -2.422657 -42.588255 -16.186396 10.500781 22.433497 -18.341828 0.000000 -0.000001 0.000001 
0.007740 106.037323 -1.101431 12.119939 -6.546211 -58.056383 -7.713333 -11.669704 11.953021 1.624845 -13.680545 17.898779 11.495892 6.366221 -2.743188 12.675496 -22.640967 33.368698 0.000000 0.000003 0.000001 -0.540876 6.590559 3.155932 -2.122627 -5.330550 -45.106436 19.656852 -5.424024 -52.218466 -0.000004 0.000002 -0.000006 5.916217 9.415045 25.662628 -31.943050 27.018205 17.099992 23.295322 2.730290 -0.912307 0.000002 0.000001 0.000000 20.414527 28.489937 -10.409502 -17.119164 -36.387437 -35.930067 34.535844 -22.717636 12.144058 0.000000 0.000003 -0.000000 23.387842 21.524119 -16.474712 -2.698332 -42.705239 -16.172763 9.999287 22.347056 -18.185659 0.000003 0.000002 0.000001 
0.055286 106.036232 -1.100290 12.142266 -6.801153 -58.075213 -7.552392 -11.428347 11.895347 1.378395 -13.843469 17.850925 11.475374 6.764755 -2.614611 13.080287 -22.708692 33.641841 -0.000000 0.000001 0.000001 -0.506305 6.531739 3.267877 -2.116531 -5.355437 -45.145194 19.666273 -5.475699 -52.401423 -0.000004 0.000000 -0.000001 5.941690 9.263512 25.656164 -31.874888 26.977101 17.197421 23.405393 2.581074 -1.164137 -0.000002 -0.000001 0.000000 20.728912 28.749185 -10.601058 -17.650180 -36.971151 -36.207687 34.213504 -23.062373 11.972078 0.000003 0.000002 0.000002 23.273222 21.412030 -16.478311 -2.684778 -42.630411 -16.202896 10.167903 22.450227 -18.255200 -0.000001 0.000002 0.000001 
0.111294 106.037132 -1.102482 11.997898 -6.945533 -58.105225 -7.298356 -11.042070 11.739618 1.235141 -14.052758 17.926115 11.628003 7.110232 -2.672650 13.562839 -22.859584 33.894793 0.000000 0.000001 -0.000000 -0.363113 6.384475 3.323070 -2.178050 -5.393265 -45.223167 19.625666 -5.620464 -52.118909 0.000000 0.000006 -0.000003 6.143168 8.854757 25.830819 -31.921039 27.007044 17.099613 23.085291 2.770904 -1.192894 -0.000000 -0.000001 -0.000000 20.954066 29.013612 -10.812180 -18.117055 -37.298075 -36.497133 34.105409 -23.291992 11.918333 0.000000 0.000001 0.000001 23.314002 21.327648 -16.539443 -2.533144 -42.557355 -16.061499 10.238248 22.276530 -18.144176 0.000003 0.000003 0.000002 
